<svg width="93" height="68" viewBox="0 0 93 68" fill="none" xmlns="http://www.w3.org/2000/svg">
<circle cx="4" cy="64" r="4" transform="rotate(-90 4 64)" fill="black"/>
<circle cx="4" cy="49" r="4" transform="rotate(-90 4 49)" fill="black"/>
<circle cx="4" cy="34" r="4" transform="rotate(-90 4 34)" fill="black"/>
<circle cx="4" cy="19" r="4" transform="rotate(-90 4 19)" fill="black"/>
<circle cx="4" cy="4" r="4" transform="rotate(-90 4 4)" fill="black"/>
<circle cx="21" cy="64" r="4" transform="rotate(-90 21 64)" fill="black"/>
<circle cx="21" cy="49" r="4" transform="rotate(-90 21 49)" fill="black"/>
<circle cx="21" cy="34" r="4" transform="rotate(-90 21 34)" fill="black"/>
<circle cx="21" cy="19" r="4" transform="rotate(-90 21 19)" fill="black"/>
<circle cx="21" cy="4" r="4" transform="rotate(-90 21 4)" fill="black"/>
<circle cx="38" cy="64" r="4" transform="rotate(-90 38 64)" fill="black"/>
<circle cx="38" cy="49" r="4" transform="rotate(-90 38 49)" fill="black"/>
<circle cx="38" cy="34" r="4" transform="rotate(-90 38 34)" fill="black"/>
<circle cx="38" cy="19" r="4" transform="rotate(-90 38 19)" fill="black"/>
<circle cx="38" cy="4" r="4" transform="rotate(-90 38 4)" fill="black"/>
<circle cx="55" cy="64" r="4" transform="rotate(-90 55 64)" fill="black"/>
<circle cx="55" cy="49" r="4" transform="rotate(-90 55 49)" fill="black"/>
<circle cx="55" cy="34" r="4" transform="rotate(-90 55 34)" fill="black"/>
<circle cx="55" cy="19" r="4" transform="rotate(-90 55 19)" fill="black"/>
<circle cx="55" cy="4" r="4" transform="rotate(-90 55 4)" fill="black"/>
<circle cx="72" cy="64" r="4" transform="rotate(-90 72 64)" fill="black"/>
<circle cx="72" cy="49" r="4" transform="rotate(-90 72 49)" fill="black"/>
<circle cx="72" cy="34" r="4" transform="rotate(-90 72 34)" fill="black"/>
<circle cx="72" cy="19" r="4" transform="rotate(-90 72 19)" fill="black"/>
<circle cx="72" cy="4" r="4" transform="rotate(-90 72 4)" fill="black"/>
<circle cx="89" cy="64" r="4" transform="rotate(-90 89 64)" fill="black"/>
<circle cx="89" cy="49" r="4" transform="rotate(-90 89 49)" fill="black"/>
<circle cx="89" cy="34" r="4" transform="rotate(-90 89 34)" fill="black"/>
<circle cx="89" cy="19" r="4" transform="rotate(-90 89 19)" fill="black"/>
<circle cx="89" cy="4" r="4" transform="rotate(-90 89 4)" fill="black"/>
</svg>
