<svg width="55" height="54" viewBox="0 0 55 54" fill="none" xmlns="http://www.w3.org/2000/svg">
<path d="M53.2863 28.318C53.0597 28.3193 52.835 28.2772 52.6252 28.1943C52.4153 28.1113 52.2245 27.9891 52.0636 27.8347L27.453 4.00132L2.84245 27.8347C2.51299 28.1077 2.08919 28.2504 1.65575 28.2342C1.22231 28.218 0.811147 28.0441 0.504428 27.7473C0.19771 27.4504 0.0180264 27.0525 0.0012844 26.6331C-0.0154576 26.2136 0.131975 25.8035 0.414121 25.4847L26.2475 0.484655C26.5701 0.174236 27.0066 0 27.4616 0C27.9166 0 28.3531 0.174236 28.6758 0.484655L54.5091 25.4847C54.7461 25.7186 54.9066 26.015 54.9705 26.3368C55.0344 26.6585 54.9989 26.9913 54.8684 27.2937C54.7379 27.596 54.5183 27.8544 54.2369 28.0366C53.9555 28.2188 53.6249 28.3166 53.2863 28.318Z" fill="black"/>
<path d="M27.4528 9.64362L6.78613 29.7103V49.9936C6.78613 50.8777 7.14903 51.7255 7.79499 52.3506C8.44095 52.9757 9.31705 53.3269 10.2306 53.3269H22.2861V36.6603H32.6195V53.3269H44.675C45.5885 53.3269 46.4647 52.9757 47.1106 52.3506C47.7566 51.7255 48.1195 50.8777 48.1195 49.9936V29.5936L27.4528 9.64362Z" fill="black"/>
</svg>
