<svg width="62" height="60" viewBox="0 0 62 60" fill="none" xmlns="http://www.w3.org/2000/svg">
<path d="M41.0686 36.715C40.6193 36.5937 37.7793 35.5373 39.554 31.0855H39.5285C44.1545 27.1538 47.6897 20.8271 47.6897 14.5983C47.6897 5.02079 39.9722 0 31.0028 0C22.0278 0 14.3527 5.01846 14.3527 14.5983C14.3527 20.8527 17.8681 27.2051 22.5223 31.1275C24.3366 35.0546 21.0924 36.5121 20.4142 36.7173C11.021 39.5204 0 44.6298 0 49.6739V51.5652C0 58.4376 16.1471 60 31.0904 60C46.0563 60 62 58.4376 62 51.5652V49.6739C62 44.4782 50.9253 39.4084 41.0686 36.715Z" fill="black"/>
</svg>
