<svg width="62" height="60" viewBox="0 0 62 60" fill="none" xmlns="http://www.w3.org/2000/svg">
<path d="M51.667 45H46.5003V23.125L31.0003 32.5L15.5003 23.125V45H10.3337V15H13.4337L31.0003 25.625L48.567 15H51.667M51.667 10H10.3337C7.46616 10 5.16699 12.225 5.16699 15V45C5.16699 46.3261 5.71134 47.5979 6.68027 48.5355C7.64921 49.4732 8.96337 50 10.3337 50H51.667C53.0373 50 54.3514 49.4732 55.3204 48.5355C56.2893 47.5979 56.8337 46.3261 56.8337 45V15C56.8337 13.6739 56.2893 12.4021 55.3204 11.4645C54.3514 10.5268 53.0373 10 51.667 10Z" fill="black"/>
</svg>
