<svg width="62" height="60" viewBox="0 0 62 60" fill="none" xmlns="http://www.w3.org/2000/svg">
<path d="M2.89021 9.48058L10.9034 1.73301C11.4687 1.18357 12.1406 0.747626 12.8804 0.450222C13.6203 0.152818 14.4136 -0.000185822 15.2148 1.69365e-07C16.8475 1.69365e-07 18.3824 0.618932 19.5336 1.73301L28.1563 10.0777C28.7241 10.6247 29.1745 11.2749 29.4819 11.9909C29.7892 12.7069 29.9473 13.4747 29.9471 14.25C29.9471 15.8301 29.3075 17.3155 28.1563 18.4296L21.8511 24.5316C23.327 27.6798 25.379 30.5438 27.908 32.9854C30.4307 35.4389 33.3899 37.4319 36.6436 38.8689L42.9488 32.767C43.5141 32.2176 44.186 31.7816 44.9258 31.4842C45.6657 31.1868 46.459 31.0338 47.2602 31.034C48.8929 31.034 50.4278 31.6529 51.579 32.767L60.2092 41.1044C60.7777 41.6524 61.2285 42.3038 61.5359 43.0211C61.8432 43.7384 62.0009 44.5075 62 45.284C62 46.8641 61.3604 48.3495 60.2092 49.4636L52.2111 57.2039C50.3752 58.9879 47.8395 60 45.2362 60C44.6869 60 44.1602 59.9563 43.641 59.8689C33.4985 58.2524 23.4387 53.0316 15.3201 45.182C7.20907 37.3398 1.82177 27.6117 0.128838 17.767C-0.382805 14.7597 0.648006 11.665 2.89021 9.48058Z" fill="black"/>
</svg>
