<?xml version="1.0" standalone="no"?>
<!DOCTYPE svg PUBLIC "-//W3C//DTD SVG 20010904//EN"
 "http://www.w3.org/TR/2001/REC-SVG-20010904/DTD/svg10.dtd">
<svg version="1.0" xmlns="http://www.w3.org/2000/svg"
 width="402.000000pt" height="402.000000pt" viewBox="0 0 402.000000 402.000000"
 preserveAspectRatio="xMidYMid meet">
<metadata>
Created by potrace 1.14, written by Peter Selinger 2001-2017
</metadata>
<g transform="translate(0.000000,402.000000) scale(0.100000,-0.100000)"
fill="#000000" stroke="none">
<path d="M3089 2433 c-14 -38 -7 -124 11 -134 8 -4 45 -11 82 -14 l68 -7 -4
-33 c-3 -19 -7 -39 -11 -44 -3 -6 -1 -20 5 -31 7 -12 11 -86 11 -191 l-1 -170
31 3 30 3 2 230 2 230 40 7 c22 4 56 7 76 7 43 1 49 12 49 81 0 27 -3 55 -6
64 -7 19 -45 21 -62 4 -8 -8 -15 -8 -24 -1 -18 15 -143 22 -191 11 -26 -6 -44
-5 -51 2 -19 19 -46 11 -57 -17z m249 -40 c-10 -2 -28 -2 -40 0 -13 2 -5 4 17
4 22 1 32 -1 23 -4z"/>
<path d="M485 2330 c3 -5 14 -10 24 -10 24 0 31 -27 31 -121 0 -131 -11 -201
-32 -207 -10 -2 -18 -8 -18 -13 0 -5 72 -9 160 -9 l159 0 5 33 c17 112 9 135
-23 62 -23 -51 -52 -68 -115 -63 l-41 3 0 155 c0 147 1 155 20 158 11 2 24 8
29 13 6 5 -33 9 -98 9 -69 0 -105 -4 -101 -10z"/>
<path d="M1690 2283 c0 -61 3 -62 28 -11 14 27 23 34 55 36 l37 3 0 -103 c0
-150 -9 -210 -32 -216 -46 -12 -10 -22 77 -22 52 0 95 4 95 9 0 5 -10 11 -22
13 -23 3 -23 6 -26 161 l-3 158 33 -3 c24 -2 38 -11 53 -35 11 -18 23 -32 28
-33 4 0 7 23 7 50 l0 50 -165 0 -165 0 0 -57z"/>
<path d="M2383 2326 c15 -12 17 -33 17 -175 0 -136 -2 -161 -15 -161 -8 0 -15
-4 -15 -10 0 -6 30 -10 70 -10 40 0 70 4 70 10 0 6 -4 10 -10 10 -6 0 -10 65
-10 175 l0 175 -62 0 c-55 -1 -61 -2 -45 -14z"/>
<path d="M974 2221 c-23 -10 -44 -27 -48 -36 -15 -40 19 -74 59 -59 13 5 16
15 12 41 -4 24 -2 36 9 40 21 8 44 -16 44 -47 0 -21 -6 -29 -23 -34 -13 -3
-42 -19 -65 -36 -35 -25 -42 -36 -42 -63 0 -18 5 -38 12 -45 17 -17 59 -15 86
4 21 15 25 15 41 0 22 -20 50 -20 79 0 25 17 30 39 7 30 -13 -4 -15 8 -15 80
0 98 -7 118 -51 133 -43 15 -57 14 -105 -8z m64 -192 c-37 -24 -50 22 -16 58
l23 25 3 -38 c2 -23 -2 -40 -10 -45z"/>
<path d="M2142 2230 c-60 -14 -95 -66 -65 -95 18 -19 34 -19 59 -1 17 13 17
18 6 37 -17 26 -3 44 27 34 16 -5 21 -15 21 -38 0 -28 -6 -35 -54 -60 -63 -33
-84 -65 -70 -105 12 -34 49 -40 95 -17 29 16 33 16 41 1 11 -20 57 -21 86 0
24 16 21 37 -3 27 -13 -4 -15 9 -15 82 0 47 -4 95 -10 105 -8 15 -62 42 -79
39 -3 -1 -21 -5 -39 -9z m46 -167 c-2 -27 -8 -39 -21 -41 -25 -5 -32 24 -13
53 24 36 38 31 34 -12z"/>
<path d="M2670 2226 c-47 -16 -73 -55 -77 -118 -6 -73 18 -118 72 -137 36 -12
45 -12 76 3 35 16 69 60 57 72 -4 3 -16 -4 -27 -15 -12 -12 -27 -21 -35 -21
-22 0 -55 33 -62 63 l-6 27 64 0 c36 0 67 2 70 6 11 10 -11 76 -32 99 -27 29
-58 35 -100 21z m48 -28 c7 -7 12 -25 12 -40 0 -24 -4 -28 -30 -28 -24 0 -30
4 -30 21 0 23 17 59 28 59 5 0 13 -5 20 -12z"/>
<path d="M1220 2224 c0 -4 7 -12 15 -18 9 -6 36 -63 60 -126 24 -63 47 -114
52 -113 4 0 18 27 31 60 47 120 40 118 76 24 17 -45 36 -83 41 -83 6 0 29 51
52 112 23 62 47 118 53 124 19 19 10 26 -30 26 -22 0 -40 -4 -40 -10 0 -5 7
-10 15 -10 19 0 19 -6 -1 -63 -9 -26 -19 -45 -24 -42 -4 2 -13 26 -20 52 -10
35 -11 48 -2 51 7 2 12 8 12 13 0 5 -31 9 -70 9 -38 0 -70 -2 -70 -5 0 -3 9
-14 20 -25 19 -19 19 -21 2 -65 l-16 -45 -18 42 c-19 49 -22 78 -8 78 6 0 10
5 10 10 0 6 -30 10 -70 10 -38 0 -70 -3 -70 -6z"/>
<path d="M2910 2210 c-20 -20 -26 -63 -14 -94 3 -9 28 -31 55 -51 49 -35 62
-61 34 -71 -20 -8 -62 20 -70 46 -11 35 -25 22 -25 -24 0 -43 12 -67 25 -47 3
6 17 6 36 -1 43 -15 88 6 106 49 18 44 4 75 -57 121 -25 19 -45 42 -45 50 0
29 26 24 60 -13 l35 -36 0 43 0 44 -60 2 c-48 2 -63 -1 -80 -18z"/>
</g>
</svg>
